<svg id="hypnosis" width="42" height="42" viewBox="0 0 42 42" fill="none" xmlns="http://www.w3.org/2000/svg">
	<path fill-rule="evenodd" clip-rule="evenodd" d="M24.7398 0.47L24.1498 0.36H23.9498C23.2881 0.248903 22.6202 0.178769 21.9498 0.15H21.5498C21.4002 0.134827 21.2494 0.134827 21.0998 0.15H20.7398C20.1198 0 19.4898 0 18.8698 0C13.9153 0.0079335 9.16606 1.9796 5.66272 5.48294C2.15939 8.98627 0.187725 13.7355 0.179792 18.69C0.177679 19.3111 0.207716 19.932 0.269788 20.55V20.68C0.267678 24.5867 1.37705 28.4134 3.46837 31.7132C5.55969 35.0131 8.54665 37.6498 12.0804 39.3156C15.6142 40.9814 19.549 41.6074 23.4252 41.1207C27.3015 40.6339 30.9593 39.0544 33.9715 36.5666C36.9837 34.0788 39.226 30.7854 40.4365 27.0709C41.647 23.3565 41.7757 19.3743 40.8077 15.5894C39.8397 11.8045 37.815 8.37313 34.9698 5.69592C32.1246 3.01871 28.5765 1.20619 24.7398 0.47ZM20.8198 39.27C15.891 39.2647 11.1657 37.3044 7.68052 33.8193C4.19537 30.3341 2.23508 25.6087 2.22979 20.68H1.22979L2.22979 20.54V20.42C1.97132 17.9459 2.26917 15.4453 3.10156 13.1011C3.93395 10.7569 5.27981 8.62844 7.04071 6.87138C8.80161 5.11431 10.933 3.77308 13.279 2.94581C15.625 2.11854 18.1262 1.82614 20.5998 2.09H21.9298C22.5098 2.09 23.0998 2.18 23.6898 2.27H23.8698L24.3698 2.36C28.9071 3.2399 32.9539 5.77842 35.7209 9.48042C38.488 13.1824 39.7767 17.7824 39.3359 22.3832C38.895 26.9839 36.7562 31.2555 33.3365 34.3647C29.9169 37.4739 25.4616 39.1977 20.8398 39.2L20.8198 39.27ZM22.4797 2.53004C19.9295 2.53651 17.4228 3.19045 15.1945 4.43054C12.9662 5.67063 11.0892 7.45627 9.73968 9.62004C8.45653 11.4101 7.69811 13.5226 7.54967 15.72C7.46589 16.3466 7.42247 16.9779 7.41968 17.61V18V18.3V18.69C7.42233 22.4261 8.90765 26.0084 11.5495 28.6502C14.1913 31.2921 17.7736 32.7774 21.5097 32.78C22.1054 32.7797 22.7003 32.7363 23.2897 32.65C27.2153 32.4476 30.9064 30.7194 33.5758 27.834C36.2452 24.9486 37.6815 21.1344 37.5785 17.2049C37.4754 13.2754 35.8411 9.54177 33.0241 6.80026C30.2071 4.05874 26.4305 2.52639 22.4997 2.53004H22.4797ZM29.3097 15.43V15.98V16.28V16.53C29.2279 19.1078 28.1463 21.5526 26.294 23.3471C24.4416 25.1415 21.9637 26.145 19.3847 26.145C16.8056 26.145 14.3278 25.1415 12.4754 23.3471C10.623 21.5526 9.54151 19.1078 9.45968 16.53V15.92C9.70233 14.0787 10.3329 12.3097 11.3097 10.73C12.2274 9.46413 13.4292 8.43106 14.8186 7.7138C16.208 6.99655 17.7462 6.61508 19.3097 6.60004H19.7397H19.8297C20.2265 6.53599 20.6277 6.50256 21.0297 6.50004C23.2063 6.50268 25.293 7.36851 26.8321 8.90761C28.3712 10.4467 29.237 12.5334 29.2397 14.71V15.27V15.42L29.3097 15.43ZM23.0897 30.66C22.5596 30.7351 22.0251 30.7752 21.4897 30.78C19.4852 30.7802 17.5122 30.2811 15.7489 29.3279C13.9856 28.3746 12.4874 26.9972 11.3897 25.32C13.093 26.8846 15.2153 27.9189 17.4971 28.2964C19.7789 28.674 22.1213 28.3784 24.2378 27.4459C26.3543 26.5134 28.1532 24.9843 29.4144 23.0457C30.6757 21.107 31.3447 18.8429 31.3397 16.53V16.21V15.98V15.33V14.72C31.3333 12.1567 30.3648 9.68912 28.6259 7.80577C26.887 5.92241 24.5044 4.76051 21.9497 4.55004H22.4797C25.9123 4.52088 29.2186 5.84336 31.6843 8.23175C34.15 10.6201 35.577 13.8827 35.6571 17.3145C35.7372 20.7464 34.464 24.072 32.1125 26.5728C29.761 29.0737 26.52 30.549 23.0897 30.68V30.66ZM16.763 10.5346C18.0556 9.67094 19.5752 9.20996 21.1298 9.20996C23.2136 9.21261 25.2112 10.0416 26.6847 11.515C28.1582 12.9885 28.9871 14.9862 28.9898 17.07C28.9898 18.6245 28.5288 20.1442 27.6651 21.4367C26.8015 22.7293 25.5739 23.7367 24.1377 24.3317C22.7014 24.9266 21.121 25.0822 19.5964 24.7789C18.0717 24.4757 16.6712 23.7271 15.5719 22.6278C14.4727 21.5286 13.7241 20.1281 13.4208 18.6034C13.1175 17.0787 13.2732 15.4983 13.8681 14.0621C14.463 12.6258 15.4704 11.3983 16.763 10.5346ZM23.4398 15.67C23.7748 15.4326 24.0378 15.1073 24.1998 14.73C24.3066 14.5455 24.3726 14.3402 24.3933 14.128C24.414 13.9158 24.3889 13.7016 24.3198 13.5C23.9777 13.7323 23.7102 14.0588 23.5498 14.44C23.4433 14.6247 23.3784 14.8305 23.3594 15.0428C23.3404 15.2552 23.3678 15.4692 23.4398 15.67ZM18.6005 22.3624C19.3907 22.738 20.2549 22.9319 21.1298 22.93C22.6779 22.9194 24.1592 22.2977 25.2511 21.2001C26.3431 20.1026 26.9572 18.6181 26.9598 17.07C26.9616 16.1449 26.7422 15.2329 26.3198 14.41C26.2646 14.8026 26.157 15.186 25.9998 15.55C25.7089 16.2156 25.2422 16.7895 24.6498 17.21C24.261 17.4786 23.8022 17.628 23.3298 17.64C23.0607 17.6386 22.795 17.5807 22.5498 17.47C22.0777 17.2336 21.7183 16.8202 21.5498 16.32C21.2573 15.4298 21.3256 14.4604 21.7398 13.62C22.0216 12.9546 22.4819 12.3801 23.0698 11.96C23.2136 11.8656 23.368 11.7884 23.5298 11.73C22.7325 11.3697 21.8647 11.1925 20.99 11.2113C20.1153 11.2302 19.256 11.4447 18.475 11.8391C17.694 12.2335 17.0113 12.7977 16.4769 13.4904C15.9424 14.1831 15.5699 14.9867 15.3866 15.8421C15.2033 16.6976 15.2138 17.5833 15.4175 18.4341C15.6212 19.285 16.0128 20.0794 16.5636 20.7592C17.1144 21.4389 17.8104 21.9867 18.6005 22.3624Z" />
</svg>
