<svg id="lighthouse" width="39" height="40" viewBox="0 0 39 40" fill="none" xmlns="http://www.w3.org/2000/svg">
	<path d="M0 0.48999V39.29H38.8V0.48999H0ZM15.42 13.72H23.29V15H15.42V13.72ZM23.25 34.06C21.98 33.94 20.7 33.87 19.42 33.87C18.42 33.87 17.42 33.92 16.42 33.99L23.03 30.93L23.25 34.06ZM16.3 7.99999C16.3 7.19638 16.6192 6.42569 17.1875 5.85746C17.7557 5.28922 18.5264 4.96999 19.33 4.96999C20.1336 4.96999 20.9043 5.28922 21.4725 5.85746C22.0408 6.42569 22.36 7.19638 22.36 7.99999H16.3ZM16.74 9.99999H22.15V11.73H16.74V9.99999ZM22.26 17V17.19L16.3 20L16.46 17H22.26ZM16.26 22.31L22.44 19.31L22.58 23L15.96 26.11L16.26 22.31ZM15.93 28.43L22.74 25.16L22.96 28.79L15.66 32.16L15.93 28.43ZM19.51 35.91C22.9669 35.9025 26.4086 36.3668 29.74 37.29H8.97001C12.3724 36.343 15.8883 35.8653 19.42 35.87L19.51 35.91ZM36.89 37.33H35.42C32.2011 35.8403 28.7815 34.8296 25.27 34.33L24.21 17H25.29V11.72H24.1V9.88999C24.3803 9.78981 24.6251 9.60953 24.8038 9.37151C24.9826 9.13349 25.0876 8.84822 25.1057 8.55109C25.1238 8.25396 25.0542 7.95805 24.9057 7.70009C24.7571 7.44212 24.5361 7.23346 24.27 7.09999C24.0793 5.92863 23.4781 4.86332 22.574 4.09452C21.6699 3.32573 20.5218 2.90359 19.335 2.90359C18.1482 2.90359 17.0001 3.32573 16.096 4.09452C15.1919 4.86332 14.5907 5.92863 14.4 7.09999C14.1239 7.24184 13.8979 7.4648 13.7523 7.7389C13.6067 8.013 13.5485 8.32511 13.5855 8.63326C13.6226 8.94142 13.753 9.23086 13.9594 9.46267C14.1658 9.69449 14.4382 9.85757 14.74 9.92999V11.72H13.42V17H14.42L13.52 34.3C9.97182 34.7784 6.51621 35.7898 3.27 37.3H2V2.48999H36.8L36.89 37.33Z" />
</svg>
