<svg id="logo" viewBox="0 0 120 27" xmlns="http://www.w3.org/2000/svg">
	<path d="m40.9 0.1-7.6 13.7-1.2 2.6 0.2-2.3v-14h-5.8v26.9h5.3l7.6-14 1.1-2.4-0.2 2.2v14.2h5.8v-26.9h-5.2z" />
	<path d="M11.6,0.1l-2.8,0L0,27h5.8l5.6-19.3L17,27h6.1L14.4,0.1H11.6z" />
	<path d="M69,0.1H52.5v6.2V27h5.8V6.2H69V0.1z" />
	<path d="M85.3,27h6.1L82.6,0h-2.8l-2.8,0L68.2,27h5.8l1.5-5.1h8.2L85.3,27z M77,16.8l2.7-9.1l2.6,9.1H77z" />
	<path d="m106.2 14c0 1 0.9 1.6 2 1.6 1 0 2-0.3 2.9-1v-2c-0.6-0.1-1.4-0.3-2.2-0.3-1.4 0-2.7 0.4-2.7 1.7z" />
	<path d="m99.6 0v20.1l9.9 6.8 9.9-6.8v-20.1h-19.8zm16.2 17.5c-0.5 0.2-1.2 0.3-1.9 0.3-1.2 0-2.1-0.5-2.5-1.3-1.1 0.9-2.5 1.4-4.2 1.4-2.2 0-4-1.3-4-3.6 0-3 2.8-3.9 5.1-3.9 0.9 0 1.9 0.1 2.7 0.3v-0.4c0-1.2-0.9-2-2.7-2-1.6 0-3 0.4-4.1 0.8v-2.9c0.9-0.3 2.7-0.8 4.5-0.7 3.5 0 5.6 1.5 5.6 5.4v3.8c0 0.6 0.4 0.8 0.8 0.8 0.2 0 0.4 0 0.6-0.1l0.1 2.1z" />
</svg>
