<svg id="moon-light" width="11" height="11" viewBox="0 0 11 11" xmlns="http://www.w3.org/2000/svg">
	<defs>
		<filter id="b" x="-.7" y="0" width="11.7" height="11" filterUnits="userSpaceOnUse">
			<feColorMatrix values="1 0 0 0 0  0 1 0 0 0  0 0 1 0 0  0 0 0 1 0" />
		</filter>
	</defs>
	<mask id="a" x="-0.7" y="0" width="11.7" height="11" maskUnits="userSpaceOnUse">
		<path d="M5.5,10C8,10,10,8,10,5.5     S8,1,5.5,1c-1.6,0-3,0.9-3.8,2.1C1.9,3.1,2.2,3,2.5,3C3.9,3,5,4.1,5,5.5S3.9,8,2.5,8C2.2,8,1.9,7.9,1.7,7.9C2.5,9.1,3.9,10,5.5,10z     " clip-rule="evenodd" fill="#fff" fill-rule="evenodd" filter="url(#b)" />
	</mask>
	<path d="M1.7,3.1L0.8,2.6L-0.7,5L2,4.1L1.7,3.1z M1.7,7.9L2,6.9L-0.7,6l1.5,2.4   L1.7,7.9z M9,5.5C9,7.4,7.4,9,5.5,9v2c3,0,5.5-2.5,5.5-5.5H9z M5.5,2C7.4,2,9,3.6,9,5.5h2C11,2.5,8.5,0,5.5,0V2z M2.5,3.7   c0.6-1,1.7-1.7,3-1.7V0c-2,0-3.7,1-4.7,2.6L2.5,3.7z M2,4.1C2.2,4,2.3,4,2.5,4V2C2.1,2,1.7,2.1,1.3,2.2L2,4.1z M2.5,4   C3.3,4,4,4.7,4,5.5h2C6,3.6,4.4,2,2.5,2V4z M4,5.5C4,6.3,3.3,7,2.5,7v2C4.4,9,6,7.4,6,5.5H4z M2.5,7C2.3,7,2.2,7,2,6.9L1.3,8.8   C1.7,8.9,2.1,9,2.5,9V7z M5.5,9c-1.3,0-2.4-0.7-3-1.7l-1.7,1C1.8,10,3.5,11,5.5,11V9z" fill="#2C39F2" mask="url(#a)" />
</svg>
