<svg viewBox="0 0 10 10" xmlns="http://www.w3.org/2000/svg">
	<style type="text/css">
		.st0{fill-rule:evenodd;clip-rule:evenodd;fill:#FFFFFF;filter:url(#b);}
		.st1{mask:url(#a);}
	</style>
	<defs>
		<filter id="b" x="-1.2" y="-.5" width="11.7" height="11" filterUnits="userSpaceOnUse">
			<feColorMatrix values="1 0 0 0 0  0 1 0 0 0  0 0 1 0 0  0 0 0 1 0" />
		</filter>
	</defs>
	<mask id="a" x="-1.2" y="-0.5" width="11.7" height="11" maskUnits="userSpaceOnUse">
		<path class="st0" d="M5,9.5c2.5,0,4.5-2,4.5-4.5S7.5,0.5,5,0.5c-1.6,0-3,0.9-3.8,2.1C1.4,2.6,1.7,2.5,2,2.5c1.4,0,2.5,1.1,2.5,2.5   S3.4,7.5,2,7.5c-0.3,0-0.6-0.1-0.8-0.1C2,8.6,3.4,9.5,5,9.5z" />
	</mask>
	<path class="st1" fill="#2C39F2" d="m1.2 2.6-0.9-0.5-1.5 2.4 2.7-0.9-0.3-1zm0 4.8 0.3-0.9-2.7-0.9 1.5 2.4 0.9-0.6zm7.3-2.4c0 1.9-1.6 3.5-3.5 3.5v2c3 0 5.5-2.5 5.5-5.5h-2zm-3.5-3.5c1.9 0 3.5 1.6 3.5 3.5h2c0-3-2.5-5.5-5.5-5.5v2zm-3 1.7c0.6-1 1.7-1.7 3-1.7v-2c-2 0-3.7 1-4.7 2.6l1.7 1.1zm-0.5 0.4c0.2-0.1 0.3-0.1 0.5-0.1v-2c-0.4 0-0.8 0.1-1.2 0.2l0.7 1.9zm0.5-0.1c0.8 0 1.5 0.7 1.5 1.5h2c0-1.9-1.6-3.5-3.5-3.5v2zm1.5 1.5c0 0.8-0.7 1.5-1.5 1.5v2c1.9 0 3.5-1.6 3.5-3.5h-2zm-1.5 1.5c-0.2 0-0.3 0-0.5-0.1l-0.7 1.9c0.4 0.1 0.8 0.2 1.2 0.2v-2zm3 2c-1.3 0-2.4-0.7-3-1.7l-1.7 1c1 1.6 2.7 2.6 4.7 2.6v-1.9z" />
</svg>
