<svg id="moon-dark" width="11" height="11" viewBox="0 0 11 11" xmlns="http://www.w3.org/2000/svg">
	<g fill="#fff">
		<path d="m5.3 8.8c-0.9 0-1.8-0.4-2.4-1.1h0.1c1.2 0 2.2-1 2.2-2.2s-1-2.2-2.2-2.2h-0.1c0.6-0.7 1.5-1 2.4-1 1.8 0 3.2 1.5 3.2 3.3s-1.4 3.2-3.2 3.2z" fill-rule="evenodd" />
		<path d="m5.3 2.5c1.7 0 3 1.3 3 3s-1.3 3-3 3c-0.7 0-1.3-0.2-1.8-0.6 1.1-0.2 1.9-1.2 1.9-2.4s-0.8-2.2-1.9-2.4c0.5-0.4 1.1-0.6 1.8-0.6m0-0.5c-1.3 0-2.5 0.7-3 1.7 0.2-0.1 0.4-0.1 0.6-0.1 1.1 0 1.9 0.9 1.9 1.9s-0.8 1.9-2 1.9c-0.2 0-0.4 0-0.6-0.1 0.6 1 1.8 1.7 3.1 1.7 1.9 0 3.5-1.6 3.5-3.5s-1.6-3.5-3.5-3.5z" />
	</g>
</svg>
