<svg width="46" height="40" viewBox="0 0 46 40" fill="none" xmlns="http://www.w3.org/2000/svg">
	<path fill-rule="evenodd" clip-rule="evenodd" d="M41.9102 39.21H4.67023C3.62702 39.2074 2.62743 38.7911 1.8907 38.0525C1.15396 37.3139 0.740231 36.3132 0.740234 35.27V4.19001C0.742874 3.14852 1.15777 2.15044 1.89422 1.414C2.63067 0.67755 3.62875 0.26265 4.67023 0.26001H41.9102C42.9487 0.275431 43.9404 0.694125 44.6757 1.42755C45.411 2.16097 45.8322 3.15163 45.8502 4.19001V35.27C45.8347 36.3101 45.4147 37.3033 44.6791 38.0389C43.9435 38.7744 42.9504 39.1945 41.9102 39.21ZM2.74023 35.27V8.00001H43.8502V35.27C43.8502 35.7845 43.6458 36.278 43.282 36.6418C42.9182 37.0056 42.4248 37.21 41.9102 37.21H4.67023C4.15745 37.2074 3.66657 37.0018 3.30491 36.6383C2.94325 36.2747 2.74023 35.7828 2.74023 35.27ZM8.23029 4.50992C8.23029 5.38805 7.51843 6.09992 6.64029 6.09992C5.76216 6.09992 5.05029 5.38805 5.05029 4.50992C5.05029 3.63179 5.76216 2.91992 6.64029 2.91992C7.51843 2.91992 8.23029 3.63179 8.23029 4.50992ZM11.7401 6.09992C12.6183 6.09992 13.3301 5.38805 13.3301 4.50992C13.3301 3.63179 12.6183 2.91992 11.7401 2.91992C10.862 2.91992 10.1501 3.63179 10.1501 4.50992C10.1501 5.38805 10.862 6.09992 11.7401 6.09992ZM39.8602 31.6401H30.9302V30.3701C30.9302 28.3332 30.1211 26.3798 28.6808 24.9395C28.4536 24.7122 28.2135 24.5007 27.9624 24.3056C26.6648 27.5085 25.4241 30.5278 25.1702 31C24.8807 31.4659 24.4219 31.8015 23.8901 31.9362C23.3584 32.0709 22.7952 31.9943 22.3188 31.7224C21.8424 31.4505 21.4899 31.0046 21.3354 30.4783C21.1809 29.952 21.2363 29.3863 21.4902 28.9C21.748 28.4556 23.7105 25.8678 25.8115 23.1298C24.9965 22.8414 24.1312 22.6901 23.2502 22.6901C21.2134 22.6901 19.2599 23.4992 17.8197 24.9395C16.3794 26.3798 15.5702 28.3332 15.5702 30.3701L15.6202 31.5801L14.6202 31.6401H6.74023V30.3701C6.84655 26.0394 8.64162 21.9217 11.7422 18.8964C14.8428 15.871 19.0032 14.1775 23.3352 14.1775C26.1031 14.1775 28.8009 14.8688 31.197 16.1572L31.2802 16.05L31.2303 16.1751C32.5717 16.9003 33.8179 17.8129 34.9283 18.8964C38.0289 21.9217 39.8239 26.0394 39.9302 30.3701L39.8602 31.6401ZM29.8896 23.249C29.5328 22.917 29.1536 22.6143 28.7558 22.3425C29.4456 20.632 30.097 19.008 30.5653 17.8384C31.5515 18.4041 32.4755 19.0874 33.3155 19.8796C36.0231 22.4331 37.6525 25.9247 37.8702 29.6401H32.9502C32.7745 27.1995 31.6809 24.916 29.8896 23.249ZM30.0938 17.5793C29.3179 18.5808 28.2414 19.9722 27.1113 21.4393C25.9159 20.9265 24.6188 20.6553 23.2952 20.6553C20.8483 20.6553 18.4921 21.582 16.7008 23.249C14.9095 24.916 13.816 27.1995 13.6402 29.6401H8.74023C8.95801 25.9247 10.5874 22.4331 13.2949 19.8796C16.0025 17.3261 19.5835 15.9038 23.3052 15.9038C25.6901 15.9038 28.0173 16.4879 30.0938 17.5793Z"></path>
</svg>
